<svg width="500" height="500" viewBox="0 0 500 500" fill="none" xmlns="http://www.w3.org/2000/svg">
<path fill-rule="evenodd" clip-rule="evenodd" d="M61.5852 54.5852H310.337C390.72 54.5852 455.883 119.749 455.883 200.132C455.883 249.652 431.152 293.397 393.366 319.687L433.033 414.223L390.927 428.423L348.82 442.623L306.714 456.822L260.078 345.678H61.5852V54.5852ZM291.813 163.083H188.607V237.18H291.813C312.274 237.18 328.861 220.593 328.861 200.132C328.861 179.67 312.274 163.083 291.813 163.083Z" fill="black"/>
<path d="M61.5852 54.5852H106.572V443.591H61.5852V54.5852Z" fill="#E26556"/>
<path d="M106.572 54.5852H151.559V443.591H106.572V54.5852Z" fill="#EAB161"/>
<path d="M151.559 54.5852H196.546V443.591H151.559V54.5852Z" fill="#57A1AC"/>
<path fill-rule="evenodd" clip-rule="evenodd" d="M51 44H310.337C396.566 44 466.469 113.902 466.469 200.132C466.469 250.168 442.922 294.704 406.346 323.263L447.196 420.617L300.764 470L253.04 356.263H207.131V454.176H51V44ZM196.546 345.678H260.078L306.714 456.822L433.033 414.223L393.366 319.687C431.152 293.397 455.883 249.652 455.883 200.132C455.883 119.748 390.72 54.5852 310.337 54.5852H61.5852V443.591H196.546V345.678ZM207.131 226.594H291.813C306.428 226.594 318.276 214.747 318.276 200.132C318.276 185.516 306.428 173.669 291.813 173.669H207.131V226.594ZM291.813 237.18C312.274 237.18 328.861 220.593 328.861 200.132C328.861 179.67 312.274 163.083 291.813 163.083H196.546V237.18H291.813Z" fill="white"/>
</svg>
