<svg width="128" height="128" viewBox="0 0 128 128" fill="none" xmlns="http://www.w3.org/2000/svg">
<path fill-rule="evenodd" clip-rule="evenodd" d="M7.98132 6.98145H78.0523C100.695 6.98145 119.051 25.3373 119.051 47.9804C119.051 61.9299 112.085 74.2523 101.441 81.6581L112.615 108.288L100.754 112.288L88.8926 116.288L77.0317 120.288L63.8947 88.9793H7.98132V6.98145ZM72.8348 37.5447H43.7628V58.4169H72.8348C78.5985 58.4169 83.2709 53.7445 83.2709 47.9808C83.2709 42.2171 78.5985 37.5447 72.8348 37.5447Z" fill="black"/>
<path d="M7.98132 6.98145H20.6537V116.56H7.98132V6.98145Z" fill="#E26556"/>
<path d="M20.6538 6.98145H33.3262V116.56H20.6538V6.98145Z" fill="#EAB161"/>
<path d="M33.3264 6.98145H45.9988V116.56H33.3264V6.98145Z" fill="#57A1AC"/>
<path fill-rule="evenodd" clip-rule="evenodd" d="M5 4H78.0527C102.343 4 122.033 23.6908 122.033 47.9807C122.033 62.0755 115.401 74.6208 105.097 82.6656L116.604 110.089L75.356 124L61.9127 91.9614H48.9807V119.543H5V4ZM45.999 88.9797H63.8951L77.0321 120.288L112.615 108.288L101.441 81.6584C112.085 74.2526 119.052 61.9302 119.052 47.9807C119.052 25.3376 100.696 6.98174 78.0527 6.98174H7.98174V116.561H45.999V88.9797ZM48.9807 55.4351H72.8346C76.9516 55.4351 80.289 52.0976 80.289 47.9807C80.289 43.8638 76.9516 40.5264 72.8346 40.5264H48.9807V55.4351ZM72.8346 58.4168C78.5983 58.4168 83.2707 53.7444 83.2707 47.9807C83.2707 42.217 78.5983 37.5446 72.8346 37.5446H45.999V58.4168H72.8346Z" fill="white"/>
</svg>
