<svg width="256" height="256" viewBox="0 0 256 256" fill="none" xmlns="http://www.w3.org/2000/svg">
<path fill-rule="evenodd" clip-rule="evenodd" d="M11.2111 10.2114H157.192C204.365 10.2114 242.607 48.4528 242.607 95.6259C242.607 124.687 228.093 150.359 205.918 165.788L229.197 221.266L204.487 229.6L179.776 237.933L155.066 246.266L127.697 181.04H11.2111V10.2114ZM146.323 73.8847H85.7559V117.368H146.323C158.33 117.368 168.064 107.634 168.064 95.6266C168.064 83.6189 158.33 73.8847 146.323 73.8847Z" fill="black"/>
<path d="M11.2111 10.2114H37.6119V238.501H11.2111V10.2114Z" fill="#E26556"/>
<path d="M37.6121 10.2114H64.0129V238.501H37.6121V10.2114Z" fill="#EAB161"/>
<path d="M64.0134 10.2114H90.4143V238.501H64.0134V10.2114Z" fill="#57A1AC"/>
<path fill-rule="evenodd" clip-rule="evenodd" d="M5 4H157.193C207.797 4 248.82 45.0226 248.82 95.6265C248.82 124.991 235.001 151.127 213.536 167.887L237.509 225.02L151.575 254L123.568 187.253H96.6264V244.714H5V4ZM90.4145 181.041H127.698L155.067 246.267L229.198 221.267L205.919 165.788C228.094 150.36 242.608 124.688 242.608 95.6265C242.608 48.4533 204.366 10.212 157.193 10.212H11.212V238.502H90.4145V181.041ZM96.6264 111.156H146.322C154.899 111.156 161.852 104.203 161.852 95.6265C161.852 87.0495 154.899 80.0966 146.322 80.0966H96.6264V111.156ZM146.322 117.368C158.33 117.368 168.064 107.634 168.064 95.6265C168.064 83.6188 158.33 73.8846 146.322 73.8846H90.4145V117.368H146.322Z" fill="white"/>
</svg>
